<svg width="32" height="33" viewBox="0 0 32 33" fill="none" xmlns="http://www.w3.org/2000/svg">
<g id="Trash">
<path id="Vector" d="M24.8 9.53387H7.19995" stroke="#161616" stroke-width="1.49793" stroke-linecap="round" stroke-linejoin="round"/>
<path id="Vector_2" d="M13.5997 14.3337V20.7337" stroke="#161616" stroke-width="1.49793" stroke-linecap="round" stroke-linejoin="round"/>
<path id="Vector_3" d="M18.4 14.3337V20.7337" stroke="#161616" stroke-width="1.49793" stroke-linecap="round" stroke-linejoin="round"/>
<path id="Vector_4" d="M23.1998 9.53387V24.7339C23.1998 24.946 23.1155 25.1495 22.9655 25.2996C22.8155 25.4496 22.612 25.5339 22.3998 25.5339H9.5998C9.38763 25.5339 9.18415 25.4496 9.03412 25.2996C8.88409 25.1495 8.7998 24.946 8.7998 24.7339V9.53387" stroke="#161616" stroke-width="1.49793" stroke-linecap="round" stroke-linejoin="round"/>
<path id="Vector_5" d="M19.9999 9.53374V7.93374C19.9999 7.50939 19.8313 7.10243 19.5312 6.80237C19.2312 6.50231 18.8242 6.33374 18.3999 6.33374H13.5999C13.1755 6.33374 12.7686 6.50231 12.4685 6.80237C12.1684 7.10243 11.9999 7.50939 11.9999 7.93374V9.53374" stroke="#161616" stroke-width="1.49793" stroke-linecap="round" stroke-linejoin="round"/>
</g>
</svg>
